<svg width="76" height="37" viewBox="0 0 76 50" fill="none" xmlns="http://www.w3.org/2000/svg">
<path d="M70.7319 16.3375C70.7319 15.1634 70.7319 13.9892 70.7319 12.8151C69.7926 11.641 68.8924 10.506 67.9531 9.37105C63.4132 3.61788 63.1001 1.03482 54.7247 6.86627C52.8853 8.15779 51.0067 8.11866 49.0498 7.14023C47.9931 6.59231 46.9364 6.1618 45.9189 5.57474C43.7663 4.40062 41.5355 4.28321 39.4221 5.41819C38.4437 5.96611 37.7392 5.77042 36.8782 5.33992C34.5691 4.1658 32.1426 4.04839 29.8726 5.26164C26.3894 7.10109 23.141 7.06195 19.6187 5.30078C16.9965 3.97011 14.8831 4.59631 12.8479 6.82713C11.0085 8.78399 9.2473 10.8191 7.48613 12.8543C5.52927 15.1242 5.68582 17.1985 7.95577 19.1945C9.63867 20.6817 11.3607 22.1689 13.161 23.6953C12.2609 24.6346 11.4781 25.4956 10.6562 26.3175C9.75609 27.2959 8.85593 28.6657 9.48213 29.6833C11.2824 32.462 12.026 35.9452 14.022 38.3717C15.9006 40.6417 19.6969 40.9548 22.1234 43.1464C22.3974 43.3813 22.9453 43.3421 23.3367 43.2247C24.6282 42.9116 25.4501 43.1464 26.3894 44.3206C28.1897 46.5514 30.851 46.7471 32.6514 44.5554C34.5299 42.2463 35.7041 42.7942 37.5044 44.5945C40.1266 47.2167 42.3965 47.021 44.6665 44.0466C45.5275 42.8725 45.8406 43.4987 46.5059 44.0075C48.8542 45.6904 50.7719 45.6121 52.4939 43.4987C53.5898 42.168 54.4899 41.1113 56.4076 40.7199C57.934 40.446 59.1472 38.9979 59.2255 37.1976C59.2647 36.1018 59.6952 35.7495 60.5953 35.2407C63.5306 33.5578 64.1177 30.8182 61.9651 28.3526C61.0258 27.2959 61.4955 26.9045 62.1608 26.1609C65.0178 22.8342 67.8748 19.5859 70.7319 16.3375ZM12.4957 30.5834C11.7129 29.8789 11.3216 29.0179 12.1043 28.196C13.9046 26.1218 15.8224 24.1649 17.7401 22.1689C18.3271 21.5819 19.1099 21.621 19.8535 21.9341C20.6754 22.2863 21.0276 23.0299 21.3407 23.9692C21.2624 24.204 21.1842 24.5563 20.9885 24.7911C18.9533 26.9045 16.9573 29.0571 14.8831 31.0922C14.022 31.9532 13.161 31.2096 12.4957 30.5834ZM17.3878 37.5498C16.0963 37.6281 15.431 37.0019 14.9613 36.18C14.4917 35.3973 14.7656 34.732 15.3136 34.1058C17.6618 31.601 20.01 29.1353 22.3974 26.6697C23.2976 25.7304 24.3151 25.8087 25.2936 26.6306C26.1546 27.4133 26.4677 28.4309 25.7241 29.2919C23.3367 31.9532 20.8319 34.5363 18.3271 37.1193C18.0532 37.4324 17.5835 37.5107 17.3878 37.5498ZM24.4717 40.2112C23.5324 41.1504 22.5931 41.033 21.6147 40.172C20.6754 39.311 20.4014 38.3326 21.3407 37.3541C22.9453 35.6321 24.5891 33.9883 26.1937 32.3054C26.7808 31.6792 27.6027 31.7184 28.268 32.0315C29.0507 32.3837 29.5595 33.0882 29.7161 34.184C29.5204 34.5363 29.3638 35.1233 28.9725 35.5147C27.5244 37.1585 25.998 38.6848 24.4717 40.2112ZM29.6769 43.577C28.7376 43.577 28.1897 42.9116 27.6809 42.2463C27.133 41.5418 27.2504 40.8374 27.8375 40.172C28.855 39.0762 29.8726 37.9412 30.9293 36.8845C31.5947 36.2192 32.4948 36.2192 33.2384 36.6888C33.9037 37.0802 34.4517 37.589 34.4517 38.4891C34.4908 39.7024 30.851 43.577 29.6769 43.577ZM60.2039 32.5403C58.8733 34.1058 57.7383 33.323 56.6033 32.2272C54.4899 30.2312 52.3374 28.196 50.1065 26.2392C49.5586 25.7695 49.1673 24.4389 47.9931 25.6913C46.7016 27.0219 48.1105 27.4133 48.6976 28.0004C50.9284 30.1529 53.2375 32.2663 55.5075 34.3797C56.6425 35.3973 57.6992 36.454 56.3294 37.9412C54.9987 39.3893 53.8637 38.7239 52.6896 37.589C50.4979 35.5147 48.2671 33.4796 46.0363 31.4444C45.4492 30.8965 45.0187 30.1138 44.0403 31.1313C43.101 32.1489 43.8446 32.5794 44.4708 33.1273C46.5059 35.0059 48.5019 36.8845 50.5762 38.7631C51.6329 39.7024 51.9069 40.6808 50.8893 41.7766C49.8326 42.9899 48.6976 42.8725 47.6018 41.8549C45.684 40.0937 43.8055 38.2934 41.8486 36.5714C41.2224 36.0235 40.7136 34.6537 39.5004 36.0235C38.3654 37.315 39.7743 37.5498 40.2831 38.1369C40.9484 38.9196 41.7312 39.5067 42.4748 40.2112C43.4141 41.1504 43.3358 42.168 42.4748 43.1073C41.6138 44.0857 40.5179 44.2814 39.6178 43.303C38.2871 41.9332 36.2128 41.1504 36.7608 38.3326C37.113 36.5714 35.5475 35.045 33.7863 34.4189C32.6122 33.9883 32.0643 33.323 31.399 32.3054C30.0292 30.2703 28.7768 28.1178 27.4852 26.1218C25.9589 23.7344 23.0627 22.0906 20.8319 19.9772C19.4621 18.6466 17.3487 19.1553 16.0963 20.6426C14.9222 22.0124 14.2177 21.5819 13.1219 20.6034C6.97734 15.2808 7.13389 16.6114 12.4174 10.6626C13.0827 9.87983 13.7872 9.17536 14.4134 8.39262C15.6658 6.9054 17.2313 6.51403 18.9142 7.41419C22.8671 9.60587 26.7025 9.48846 30.6162 7.37505C32.26 6.51403 34.0994 6.39662 35.8606 7.5316C35.1561 8.62744 34.0212 9.01881 33.121 9.76242C31.125 11.4062 30.6554 13.5196 31.9469 15.5156C33.3167 17.7073 35.8215 18.764 37.7392 17.3942C41.3398 14.772 43.9229 16.1418 46.9364 18.3726C51.3981 21.6993 55.5075 25.3782 59.5778 29.1353C60.7127 30.1529 61.3781 31.1705 60.2039 32.5403ZM60.5953 24.3215C59.6169 25.5347 58.9907 25.5738 57.8557 24.4389C54.216 20.7208 49.95 17.6681 45.684 14.7328C44.4708 13.911 43.2184 13.2848 41.7312 13.363C40.244 13.3239 38.9916 14.0675 37.8175 14.8111C36.3694 15.7113 34.9996 15.907 33.9037 14.2632C32.8079 12.5803 34.0603 11.8758 35.1953 11.1322C35.3518 11.0539 35.4692 10.9365 35.5866 10.8191C39.5004 6.98368 43.6489 5.96611 48.5411 9.37105C50.8893 10.9757 53.4332 10.3103 55.8597 8.86226C62.3565 4.94854 60.9084 4.20494 66.1137 10.8583C66.5833 11.4453 67.053 12.0324 67.5226 12.6586C68.6967 14.1458 68.6184 15.5156 67.2878 16.9245C65.057 19.3119 62.787 21.7775 60.5953 24.3215Z" fill="#3CB180"/>
</svg>
