<svg width="45" height="45" viewBox="0 0 45 50" fill="none" xmlns="http://www.w3.org/2000/svg">
<path d="M22.8048 3.57141C23.2638 4.37461 23.3021 5.21605 22.8431 6.05749C22.6901 6.32523 22.3459 6.32523 22.1929 6.05749C21.7339 5.2543 21.7722 4.41285 22.2311 3.57141C22.4224 3.57141 22.6136 3.57141 22.8048 3.57141Z" fill="#3CB180"/>
<path d="M7.5059 20.7445C7.96486 20.7827 8.57682 20.7827 8.53858 21.5094C8.50033 22.2744 7.85012 22.1596 7.35291 22.1979C6.85569 22.1979 6.16724 22.1979 6.16724 21.5094C6.20548 20.7062 6.89394 20.7445 7.5059 20.7445Z" fill="#3CB180"/>
<path d="M37.6066 20.7444C38.2185 20.7444 38.8305 20.8209 38.7922 21.5094C38.7158 22.2743 38.0273 22.1978 37.4536 22.1978C36.9946 22.1978 36.4209 22.1978 36.4209 21.5094C36.4591 20.6297 37.1476 20.7827 37.6066 20.7444Z" fill="#3CB180"/>
<path d="M8.9975 30.7271C8.53853 30.6888 8.15605 30.4593 8.30904 30.0386C8.57677 29.2354 9.30348 29.0059 9.95368 28.8147C10.2214 28.7382 10.5656 29.1207 10.5274 29.4267C10.3362 30.2681 9.57121 30.4211 8.9975 30.7271Z" fill="#3CB180"/>
<path d="M34.432 29.4267C34.5467 29.006 34.8145 28.5852 35.197 28.7765C35.8089 29.0825 36.6121 29.2355 36.7268 30.1534C36.7651 30.4594 36.4209 30.7654 36.0766 30.6506C35.3882 30.4976 34.738 30.1917 34.432 29.4267Z" fill="#3CB180"/>
<path d="M15.8055 7.47262C15.8055 8.08458 15.6143 8.35232 15.2318 8.23757C14.3904 8.00809 14.2374 7.20489 14.0461 6.47819C13.9697 6.17221 14.2756 5.82799 14.6199 5.90448C15.5378 6.05747 15.4613 7.0519 15.8055 7.47262Z" fill="#3CB180"/>
<path d="M29.8807 8.27586C29.3835 8.27586 29.1157 8.04637 29.1922 7.6639C29.3452 6.9372 29.5365 6.09575 30.3779 5.90452C30.7221 5.82802 31.0281 6.21049 30.9516 6.47823C30.7604 7.20493 30.5309 7.96988 29.8807 8.27586Z" fill="#3CB180"/>
<path d="M9.83897 14.1659C9.3035 13.7452 8.42381 13.7069 8.30907 12.789C8.27082 12.3683 8.69154 12.1005 9.07402 12.2535C9.68598 12.483 10.3744 12.7125 10.5274 13.4774C10.6422 13.8982 10.2214 14.1276 9.83897 14.1659Z" fill="#3CB180"/>
<path d="M36.727 12.9421C36.3827 13.6688 35.7325 13.9748 35.0441 14.1278C34.6998 14.2043 34.2791 13.7835 34.4704 13.3628C34.8146 12.6744 35.4265 12.2536 36.1915 12.2154C36.5357 12.2154 36.6887 12.5214 36.727 12.9421Z" fill="#3CB180"/>
<path d="M33.7055 17.8759C33.629 17.3787 33.629 16.4225 32.8258 16.5755C31.9461 16.7285 32.4051 17.4552 32.4816 18.0289C33.2465 22.4274 32.2521 26.2521 29.1158 29.1972C27.4329 30.7653 25.7118 32.2187 25.444 34.8578C25.4058 35.2785 25.1381 35.3933 24.7938 35.355C24.4496 35.3168 24.4496 35.0108 24.4496 34.7048C24.5261 31.798 23.6464 28.5852 26.6679 26.6346C26.8209 26.5199 26.9739 26.3286 27.0504 26.1374C27.3182 25.5637 26.8592 25.0282 26.6297 25.2577C25.8648 25.9462 25.0998 25.4107 24.3349 25.4872C22.6137 25.6402 20.8543 25.6402 19.095 25.6402C18.6742 25.6402 18.2153 24.7987 17.8328 25.6019C17.4886 26.3286 18.177 26.7111 18.5977 27.0171C20.2041 28.2792 20.8926 29.9239 20.4719 31.645C20.4719 32.8689 20.4719 33.7104 20.4719 34.5518C20.4719 34.8578 20.5484 35.2785 20.1276 35.355C19.6687 35.4315 19.5157 35.1255 19.4392 34.7048C19.1332 32.5247 17.9093 31.0331 16.3794 29.7326C12.8606 26.7493 11.4837 22.7716 12.4782 18.0672C13.3961 13.6305 16.1117 10.6854 20.1276 9.691C24.4878 8.62007 28.1214 10.1882 30.8369 14.1277C31.1429 14.5484 31.3724 15.4664 32.0608 14.9691C32.7875 14.4719 32.1373 13.8982 31.8696 13.4392C29.2305 9.11729 24.1436 7.05193 19.5539 8.46708C15.1172 9.84399 12.2487 13.0568 11.2542 17.9524C10.2216 23.0776 11.7515 27.3996 15.538 30.6888C16.6089 31.645 17.6033 32.6395 18.1005 34.1311C18.3683 34.9343 18.4448 35.5463 17.3356 35.4315C16.1499 35.2785 15.7674 36.0052 15.7292 37.2674C15.6909 38.4913 15.9969 39.2945 17.1443 39.6387C16.7236 41.2834 18.3683 41.9718 18.5977 43.3487C18.636 43.7312 18.8272 44.1137 19.248 44.1137C19.6304 44.1519 19.8599 43.8077 19.7834 43.5017C19.3627 41.8188 20.4336 42.2013 21.2368 42.1631C22.2695 42.1631 23.2639 42.2013 24.2966 42.1631C25.5205 42.0866 25.444 42.6985 24.9851 43.54C24.1436 44.9934 22.9962 45.4906 21.4663 44.9169C21.0073 44.7256 20.6249 44.8786 20.5101 45.3758C20.3954 45.8348 20.7396 46.0643 21.1221 46.1408C21.5045 46.2555 21.887 46.3703 22.3077 46.4085C23.3787 46.5233 24.2966 46.1408 25.0998 45.3758C26.4385 44.1137 26.7444 42.1248 27.7006 40.5949C27.9684 40.1359 27.8154 39.4857 28.5421 39.1415C29.613 38.6443 29.2305 37.3821 29.154 36.4642C29.1158 35.6227 28.4656 35.2785 27.7006 35.3933C26.5915 35.5463 26.5532 34.9725 26.8592 34.0546C27.3564 32.4865 28.4656 31.5303 29.5748 30.5358C33.2465 27.2083 34.5852 22.9629 33.7055 17.8759ZM20.3571 27.1318C21.6958 27.1701 22.958 26.5964 24.3349 27.3231C23.0727 28.2028 23.2639 29.6179 23.3022 30.9948C23.3022 32.1805 23.2639 33.3279 23.3022 34.5136C23.3404 35.1638 23.1109 35.3933 22.5372 35.3933C21.9635 35.3933 21.6958 35.2403 21.734 34.5518C21.7723 33.2132 21.6958 31.8745 21.7723 30.5358C21.7723 29.1972 21.734 27.8968 20.3571 27.1318ZM25.6735 40.7862C24.6026 40.7862 23.5699 40.7862 22.499 40.7862C21.4281 40.7862 20.3954 40.7862 19.3244 40.7862C18.8655 40.7862 18.4448 40.8244 18.4448 40.0595C18.483 39.371 18.8272 39.4092 19.248 39.4092C21.4281 39.4092 23.5699 39.4092 25.75 39.4092C26.1707 39.4092 26.515 39.371 26.5532 40.0595C26.5915 40.8244 26.1707 40.7862 25.6735 40.7862ZM27.2034 36.6937C27.5859 36.6937 28.0066 36.5789 28.0449 37.3056C28.0831 38.0706 27.7006 38.0706 27.2034 38.0706C24.0671 38.0706 20.9308 38.0706 17.7945 38.0706C17.4121 38.0706 16.9914 38.1853 16.9531 37.4586C16.9149 36.7319 17.2973 36.6937 17.7945 36.6937C19.4009 36.7319 21.0456 36.6937 22.652 36.6937C24.1819 36.6937 25.6735 36.6937 27.2034 36.6937Z" fill="#3CB180"/>
</svg>
