<svg width="53" height="40" viewBox="0 0 53 50" fill="none" xmlns="http://www.w3.org/2000/svg">
<path d="M20.1374 12.5052C21.05 12.4687 22.4736 13.2353 23.7513 14.4764C25.686 16.3746 25.7225 16.3746 27.7303 14.4034C29.5555 12.6147 31.7092 12.0671 34.082 12.7972C38.28 14.0749 39.8132 18.9664 37.1484 22.4709C36.2723 23.6025 35.1772 24.5516 34.1915 25.5737C33.8265 25.9388 33.3884 26.3038 32.9139 25.7562C32.4758 25.2817 32.7679 24.8436 33.1329 24.4786C33.936 23.6755 34.7391 22.9089 35.5057 22.0693C37.4404 19.9886 37.4404 17.2872 35.5787 15.389C33.7535 13.5638 31.1252 13.5273 29.0079 15.243C27.8763 16.1556 27.1462 18.0538 25.686 18.0173C24.3719 17.9808 23.6053 16.1921 22.5102 15.2795C20.3929 13.4908 17.5821 13.5638 15.7934 15.462C13.9681 17.3968 13.9681 20.0616 15.9029 22.0328C18.8597 25.0992 21.8896 28.0195 24.8464 31.0859C25.613 31.8525 25.9781 31.6699 26.6351 31.0129C27.7668 29.7717 29.0079 28.6036 30.1761 27.4354C30.5046 27.1069 30.8696 26.5593 31.4172 27.0704C32.0013 27.618 31.6362 28.056 31.1982 28.4941C29.7015 29.9907 28.2048 31.4874 26.7081 32.9841C25.9781 33.6777 25.2845 33.6047 24.5909 32.9111C21.196 29.5162 17.7281 26.1578 14.4427 22.6899C12.6905 20.7917 12.435 18.4554 13.5666 16.0826C14.6982 13.7463 16.633 12.5417 20.1374 12.5052Z" fill="#3CB180"/>
<path d="M24.8099 40.0294C25.2844 39.1898 24.2623 37.6566 25.7225 37.7296C27.0366 37.7661 26.3431 39.2263 26.3796 40.0659C26.3796 40.869 26.9636 42.4022 25.7225 42.4022C24.1893 42.3657 25.4304 40.723 24.8099 40.0294Z" fill="#3CB180"/>
<path d="M7.32432 20.7187C8.0179 21.1567 9.55108 20.0981 9.51457 21.5948C9.51457 22.7994 8.12741 22.2884 7.36082 22.2519C6.48472 22.2154 4.87853 22.9089 4.87853 21.5583C4.84202 20.0981 6.48472 21.1567 7.32432 20.7187Z" fill="#3CB180"/>
<path d="M44.2666 20.7186C45.0332 21.1202 46.5664 20.1346 46.5299 21.5582C46.4934 22.8359 45.0332 22.2153 44.1936 22.2153C43.3905 22.2153 41.8939 22.8359 41.8939 21.5582C41.8939 19.9886 43.5001 21.1932 44.2666 20.7186Z" fill="#3CB180"/>
<path d="M26.5256 3.16008C26.0876 3.89017 27.1462 5.42335 25.613 5.35034C24.4449 5.31384 24.9559 3.92667 24.9924 3.16008C25.0289 2.28398 24.2989 0.714294 25.686 0.714294C27.1462 0.714294 26.0876 2.32048 26.5256 3.16008Z" fill="#3CB180"/>
<path d="M14.4792 9.43884C14.5157 10.1324 14.1871 10.534 13.7126 10.3149C12.4349 9.65787 11.4858 8.56274 10.7192 7.3946C10.3907 6.88354 10.9748 6.33598 11.5223 6.62801C12.8 7.32159 13.7126 8.38022 14.4792 9.43884Z" fill="#3CB180"/>
<path d="M37.4769 10.3149C36.7468 10.2419 36.6373 9.65782 37.0754 9.18326C37.8419 8.27066 38.6815 7.46756 39.5576 6.70097C39.7037 6.55496 40.1417 6.59146 40.3972 6.66447C40.5433 6.70097 40.6528 7.06602 40.6528 7.28504C40.6528 7.7961 38.061 10.3149 37.4769 10.3149Z" fill="#3CB180"/>
<path d="M46.749 40.285C46.603 38.9709 46.749 37.6567 46.7125 36.3791C46.7125 35.8315 46.822 35.1014 45.9824 35.1379C45.2158 35.1744 45.2158 35.8315 45.2158 36.4156C45.2158 38.4598 45.2524 40.5405 45.1793 42.5848C45.1063 44.6655 43.9382 46.0527 42.0035 46.7828C40.0322 47.5494 38.207 47.1113 36.8929 45.5781C35.4692 43.8989 33.8995 42.4023 32.4028 40.8326C32.0013 40.431 31.1982 39.9565 31.8553 39.3359C32.4758 38.7518 32.9139 39.5914 33.3519 39.92C34.2646 40.6136 34.7391 41.8912 36.1993 41.8182C38.28 41.7087 39.6672 42.5848 39.9592 44.8115C40.0322 45.2861 40.2513 45.6877 40.7988 45.6511C41.5654 45.6146 41.4194 45.0306 41.4194 44.556C41.3829 42.3658 39.4847 40.5771 36.9659 40.3945C36.2723 40.358 35.5057 40.4675 35.5057 39.4454C35.5057 36.4521 35.5057 33.4587 35.5057 30.4654C35.5057 30.0638 35.7247 29.6988 36.1263 29.6623C36.6738 29.6258 36.8564 30.0273 36.8929 30.5019C36.8929 31.5605 36.8929 32.6191 36.8929 33.6777C36.8929 38.9344 36.8929 38.8979 42.186 38.8979C43.5732 38.8979 44.0842 38.4598 44.0112 37.0726C43.9382 35.2839 43.9747 33.4587 44.0112 31.67C44.0112 31.2685 43.9017 30.7209 44.5223 30.6479C45.3254 30.5749 45.1793 31.1954 45.2158 31.67C45.2158 31.8525 45.2158 32.035 45.2158 32.2176C45.2524 32.7286 45.3619 33.2397 46.0189 33.2397C46.7855 33.2397 46.676 32.6191 46.676 32.1446C46.676 31.4145 46.9681 30.3558 46.311 30.0273C44.7778 29.2242 43.6827 27.8005 42.113 27.18C41.4559 26.9244 41.0179 26.7419 40.6893 26.1213C40.2513 25.3548 39.4847 25.0992 38.6086 25.2452C37.6595 25.4278 37.0389 25.9753 36.8929 26.9609C36.8199 27.472 37.0389 27.9831 36.0898 28.0561C34.5201 28.1656 33.936 29.3337 33.936 30.8304C33.936 33.2397 33.936 35.6125 33.936 38.1313C32.5489 37.5837 31.4172 37.3282 30.5411 38.4963C29.957 39.2629 29.811 40.2485 30.5046 40.9056C33.2789 43.4244 35.1407 46.9653 38.7181 48.5715C39.8497 48.5715 40.9813 48.5715 42.0765 48.5715C45.7634 46.8923 47.1506 44.118 46.749 40.285ZM41.1274 29.6623C41.1274 29.1512 41.1639 28.5671 41.8209 28.5671C42.5145 28.5671 42.5145 29.1147 42.5145 29.6258C42.5145 30.7574 42.5145 31.889 42.5145 32.9842C42.5145 34.1158 42.5145 35.2474 42.5145 36.3426C42.5145 36.7806 42.5875 37.2187 41.9305 37.2552C41.2734 37.2917 41.0909 36.9631 41.0909 36.3426C41.1274 34.1523 41.0909 31.9255 41.1274 29.6623ZM38.3895 27.618C38.3895 27.1435 38.426 26.6689 39.0101 26.7054C39.5942 26.7054 39.5942 27.2165 39.5942 27.6545C39.5942 30.5749 39.5942 33.4952 39.5942 36.4156C39.5942 36.8536 39.6307 37.2917 38.9736 37.2917C38.28 37.2917 38.3895 36.8171 38.3895 36.3791C38.3895 34.8824 38.3895 33.3857 38.3895 31.9255C38.3895 30.4654 38.3895 29.0417 38.3895 27.618Z" fill="#3CB180"/>
<path d="M20.2468 37.9122C19.3707 37.2551 18.4216 37.7296 17.363 37.9487C17.363 36.89 17.363 35.9774 17.363 35.0283C17.363 34.4808 17.1075 33.9697 16.4869 34.0427C15.9758 34.0792 15.8663 34.5903 15.8663 35.0283C15.8663 36.16 15.7933 37.2916 15.8663 38.3867C15.9393 39.6644 15.6838 40.2849 14.1506 40.2849C11.8874 40.2849 10.0256 42.1832 9.91613 44.2639C9.87962 44.7385 9.6606 45.359 10.3542 45.5051C11.1208 45.6511 11.3033 45.1035 11.3763 44.4829C11.5223 42.9863 12.4714 41.7816 13.8221 41.8546C15.9028 41.9641 17.0345 40.796 18.2026 39.5549C18.5676 39.1898 19.0057 38.7883 19.4803 39.2628C19.9548 39.7739 19.4803 40.1754 19.1152 40.504C17.4725 42.2197 15.7933 43.8624 14.2236 45.6511C13.0555 47.0017 11.3398 47.3303 9.58759 46.8192C7.76237 46.2717 6.33871 45.0305 6.22919 43.1688C6.01017 39.1898 6.11968 35.1743 6.11968 31.1954C6.11968 30.7938 6.22919 30.4288 6.74025 30.4653C7.25131 30.5018 7.32432 30.8668 7.32432 31.2684C7.32432 31.962 7.32432 32.6556 7.32432 33.3126C7.32432 38.8978 7.32432 38.8248 12.8 38.7518C14.0046 38.7153 14.4427 38.3867 14.4062 37.1456C14.3331 34.9553 14.3697 32.7651 14.3697 30.5748C14.3697 30.0637 14.4427 29.5162 15.0997 29.5162C15.6108 29.5162 15.7203 30.0272 15.7568 30.5018C15.7568 30.7573 15.7568 31.0129 15.7568 31.2684C15.7933 31.7429 15.9028 32.181 16.4869 32.108C17.0345 32.0715 17.1805 31.6699 17.2535 31.1954C17.363 29.6987 17.0345 28.348 15.3553 28.0195C14.5887 27.8735 14.3331 27.691 14.3331 26.9244C14.2966 25.9388 13.6396 25.3547 12.6905 25.1722C11.8144 24.9896 10.9748 25.2087 10.6097 26.0118C10.2447 26.7784 9.73361 27.0339 8.96701 27.1069C8.30994 27.1799 7.83538 27.618 7.57985 28.2385C7.36083 28.7131 7.1418 29.0416 6.52123 29.0416C5.02455 29.1146 4.5865 30.1368 4.5865 31.4874C4.5865 34.4808 4.73252 37.4741 4.54999 40.4675C4.29446 44.2639 5.64512 46.9652 9.14954 48.5349C10.2812 48.5349 11.4128 48.5349 12.5079 48.5349C16.0854 46.8922 17.9836 43.4243 20.7214 40.8325C21.7435 39.9199 21.3055 38.7153 20.2468 37.9122ZM11.7778 27.5449C11.7778 27.1434 11.8144 26.7419 12.3254 26.7054C12.9095 26.6688 13.019 27.1069 13.019 27.5815C13.019 29.1146 13.019 30.6843 13.019 32.254C13.019 33.6777 13.019 35.1013 13.019 36.525C13.019 36.89 13.019 37.2551 12.4714 37.2916C11.8509 37.3281 11.7778 36.9631 11.7778 36.4885C11.7778 33.4951 11.7778 30.5018 11.7778 27.5449ZM8.8575 29.5162C8.8575 29.0416 8.96701 28.5671 9.51458 28.5671C10.1717 28.5306 10.2812 29.0781 10.3177 29.5892C10.3177 30.7208 10.3177 31.8525 10.3177 32.9476C10.3177 34.0427 10.3177 35.2108 10.3177 36.306C10.3177 36.8535 10.2812 37.2916 9.55108 37.2916C8.93051 37.2916 8.89401 36.9266 8.89401 36.452C8.8575 34.1522 8.8575 31.8525 8.8575 29.5162Z" fill="#3CB180"/>
</svg>
