<svg width="43" height="45" viewBox="0 0 43 50" fill="none" xmlns="http://www.w3.org/2000/svg">
<g opacity="0.7">
<path d="M36.5151 40.2877C35.2731 36.9635 34.0666 33.6027 32.8246 30.2785C32.5762 29.5845 32.5407 29.1461 33.144 28.5616C34.0666 27.6849 34.4924 26.4795 34.173 25.1644C33.8892 24.032 34.244 23.1553 34.9892 22.3516C36.799 20.379 36.8345 18.4429 35.0247 16.4703C34.315 15.7032 33.9601 14.8995 34.1376 13.8037C34.5634 11.2466 33.3924 9.56621 30.8019 9.05479C29.9147 8.87215 29.0631 8.57991 28.7082 7.7032C28.1759 6.46119 27.2178 5.69406 26.1532 5C25.337 5 24.5209 5 23.7402 5C22.3207 5.65753 20.9013 5.65753 19.4819 5C18.6657 5 17.8495 5 17.0688 5C16.3236 5.621 15.33 5.9863 14.9042 7.04566C14.3719 8.28767 13.4492 8.87215 12.1363 9.09132C9.97161 9.45662 8.65863 11.4292 9.08446 13.621C9.29738 14.7534 8.97801 15.6301 8.2328 16.4338C6.42302 18.4064 6.42302 20.3059 8.26829 22.3151C9.01349 23.1553 9.36835 23.9954 9.08446 25.1279C8.76509 26.4064 9.08446 27.5753 10.0071 28.4155C10.7168 29.0731 10.6813 29.621 10.3974 30.3881C9.11995 33.7123 7.91343 37.0365 6.67142 40.3973C6.49399 40.8356 6.24559 41.3105 6.63593 41.7123C7.02628 42.1142 7.45211 41.8219 7.91343 41.6393C9.01349 41.2374 10.1136 40.9087 11.1781 40.4338C11.8524 40.1416 12.1717 40.3242 12.4911 40.9452C13.2008 42.3333 13.9815 43.6484 14.6912 45C14.9042 45 15.0816 45 15.2945 45C16.0397 44.5982 16.2881 43.8676 16.572 43.137C17.6011 40.4338 18.5592 37.6941 19.5883 34.9909C19.9787 33.968 20.5464 33.274 21.682 33.274C22.782 33.274 23.3853 33.968 23.7757 34.9909C24.8047 37.6941 25.7629 40.4338 26.792 43.137C27.0759 43.8676 27.3243 44.6347 28.0695 45C28.2824 45 28.4598 45 28.6727 45C28.8856 44.6347 29.0986 44.3059 29.3115 43.9406C29.9857 42.7352 30.4115 40.9817 31.4051 40.4703C32.5407 39.8858 33.9601 41.2374 35.3086 41.6027C35.7699 41.7123 36.2667 42.1507 36.6925 41.7123C37.0474 41.274 36.6925 40.7626 36.5151 40.2877ZM14.7977 42.8082C14.1235 41.5662 13.5557 40.6164 13.0944 39.5936C12.704 38.7534 12.2072 38.6073 11.3911 38.9361C10.4329 39.3379 9.40384 39.6667 8.44572 40.032C7.9844 39.484 8.4812 39.1187 8.58766 38.7169C9.47481 36.1963 10.4329 33.6758 11.3556 31.1553C11.9943 29.4749 13.0589 29.2922 14.2299 30.6804C14.3719 30.8265 14.5138 31.0091 14.5848 31.1918C15.2235 32.7626 16.4301 33.5662 18.0979 33.8584C17.0333 36.8174 15.9687 39.6667 14.7977 42.8082ZM23.4918 31.9954C22.2143 31.411 20.9723 31.411 19.6948 31.9954C17.814 32.8721 16.8204 32.5434 15.8268 30.7169C15.1881 29.5479 14.3009 28.7808 13.0589 28.4886C10.6104 27.9041 10.2555 27.4658 10.362 24.726C10.5394 23.4475 10.0071 22.3151 9.01349 21.2557C7.84246 20.0502 7.80697 18.6986 8.94252 17.5297C10.1136 16.3607 10.5039 15.0822 10.362 13.4384C10.1845 11.3927 10.8233 10.589 12.775 10.2603C14.1235 10.0046 15.0816 9.27397 15.7558 8.10502C16.8914 6.13242 17.743 5.80365 19.7303 6.71689C21.0078 7.30137 22.2498 7.30137 23.5273 6.71689C25.408 5.84018 26.4016 6.16895 27.3952 7.99543C28.0695 9.27397 29.0631 10.0411 30.447 10.2603C32.3278 10.589 33.0375 11.3927 32.8601 13.3288C32.7181 15.0091 33.073 16.3607 34.2795 17.5662C35.3796 18.6256 35.3441 20.0868 34.244 21.1461C33.0375 22.3516 32.6826 23.7032 32.8601 25.3836C33.0375 27.21 32.2923 28.1598 30.589 28.4155C29.134 28.6347 28.1049 29.4018 27.3952 30.7169C26.3661 32.5799 25.3725 32.9087 23.4918 31.9954ZM31.76 38.9361C30.9438 38.6073 30.447 38.7534 30.0567 39.5936C29.5954 40.6164 29.0276 41.5662 28.3533 42.8082C27.2178 39.7397 26.1532 36.8539 25.0532 33.895C26.7565 33.6027 27.963 32.726 28.6372 31.1187C28.9566 30.3516 29.6663 30.0228 30.4115 29.8037C30.9083 29.6575 31.2277 29.7306 31.4406 30.3151C32.5762 33.4932 33.7472 36.6347 35.0602 40.1416C33.7827 39.6667 32.7536 39.3379 31.76 38.9361Z" fill="#3CB180"/>
<path d="M21.611 10.0046C16.501 10.0046 12.4556 14.0959 12.4556 19.3562C12.4556 24.6164 16.4655 28.7808 21.54 28.7808C26.6145 28.7808 30.6954 24.653 30.6954 19.4292C30.7309 14.2055 26.721 10.0411 21.611 10.0046ZM21.54 27.5388C17.3172 27.5023 13.7331 23.8128 13.6976 19.4658C13.6622 15.0457 17.3172 11.2831 21.611 11.3196C25.8693 11.3562 29.4534 15.0457 29.4534 19.3927C29.4889 23.7763 25.8338 27.5388 21.54 27.5388Z" fill="#3CB180"/>
<path d="M26.9339 17.7854C26.7565 17.2374 26.2951 17.2009 25.8338 17.2009C24.2015 17.2009 22.995 16.5799 22.4981 14.7899C22.3917 14.3516 22.2143 13.8402 21.682 13.8036C21.0077 13.7671 20.8658 14.3516 20.7238 14.8265C20.2625 16.5434 19.127 17.1644 17.5301 17.2009C17.0688 17.2009 16.572 17.1644 16.3236 17.6758C16.0397 18.3333 16.6075 18.6621 16.9623 18.9178C18.4527 19.9406 18.7011 21.2922 18.1334 22.936C18.0979 23.0456 18.0624 23.1187 18.0269 23.3379C18.0269 24.2511 18.4882 24.6895 19.3044 24.0319C20.8658 22.8265 22.3562 22.7899 23.9176 24.0685C24.166 24.2876 24.5209 24.5068 24.8757 24.1781C25.2661 23.8493 25.2306 23.4475 25.0886 23.0456C24.4854 21.2922 24.8047 19.8676 26.4016 18.8082C26.6855 18.589 27.0758 18.2968 26.9339 17.7854ZM23.5272 22.4246C22.2497 21.4018 21.0077 21.2557 19.5528 22.6438C19.9077 20.8539 19.9786 19.5023 18.0624 18.4794C19.8367 18.2237 21.1852 17.895 21.5045 16.0319C22.0723 17.6392 23.1369 18.4064 24.7338 18.3698C23.3498 20.2694 23.3498 20.2694 23.5272 22.4246Z" fill="#3CB180"/>
</g>
</svg>
