<svg width="44" height="38" viewBox="0 0 44 44" fill="none" xmlns="http://www.w3.org/2000/svg">
<path d="M0 0H22C34.1503 0 44 9.84974 44 22V22C44 34.1503 34.1503 44 22 44V44C9.84974 44 0 34.1503 0 22V0Z" fill="white"/>
<path d="M17.3864 9C13.3139 9 10 12.3139 10 16.3864V26.6136C10 30.6861 13.3139 34 17.3864 34H27.6136C31.6861 34 35 30.6861 35 26.6136V16.3864C35 12.3139 31.6861 9 27.6136 9H17.3864ZM17.3864 10.1364H27.6136C31.0719 10.1364 33.8636 12.9281 33.8636 16.3864V26.6136C33.8636 30.0719 31.0719 32.8636 27.6136 32.8636H17.3864C13.9281 32.8636 11.1364 30.0719 11.1364 26.6136V16.3864C11.1364 12.9281 13.9281 10.1364 17.3864 10.1364ZM29.3182 13.5455C29.0168 13.5455 28.7278 13.6652 28.5147 13.8783C28.3015 14.0914 28.1818 14.3804 28.1818 14.6818C28.1818 14.9832 28.3015 15.2722 28.5147 15.4853C28.7278 15.6985 29.0168 15.8182 29.3182 15.8182C29.6196 15.8182 29.9086 15.6985 30.1217 15.4853C30.3348 15.2722 30.4545 14.9832 30.4545 14.6818C30.4545 14.3804 30.3348 14.0914 30.1217 13.8783C29.9086 13.6652 29.6196 13.5455 29.3182 13.5455ZM22.5 15.25C19.0549 15.25 16.25 18.0549 16.25 21.5C16.25 24.945 19.0549 27.75 22.5 27.75C25.945 27.75 28.75 24.945 28.75 21.5C28.75 18.0549 25.945 15.25 22.5 15.25ZM22.5 16.3864C25.3309 16.3864 27.6136 18.6691 27.6136 21.5C27.6136 24.3309 25.3309 26.6136 22.5 26.6136C19.6691 26.6136 17.3864 24.3309 17.3864 21.5C17.3864 18.6691 19.6691 16.3864 22.5 16.3864Z" fill="#1D976C"/>
</svg>
