<svg width="44" height="38" viewBox="0 0 44 44" fill="none" xmlns="http://www.w3.org/2000/svg">
<path d="M0 0H22C34.1503 0 44 9.84974 44 22V22C44 34.1503 34.1503 44 22 44V44C9.84974 44 0 34.1503 0 22V0Z" fill="white"/>
<path d="M21.5 10C14.603 10 9 15.603 9 22.5C9 24.7169 9.60798 26.7858 10.6219 28.5918L9.02017 34.31C8.99458 34.4015 8.99342 34.4982 9.01681 34.5902C9.04021 34.6823 9.08733 34.7667 9.15349 34.8349C9.21965 34.9031 9.30253 34.9527 9.39386 34.9789C9.4852 35.0051 9.5818 35.0069 9.67404 34.9841L15.6364 33.5065C17.3884 34.4418 19.3764 35 21.5 35C28.397 35 34 29.397 34 22.5C34 15.603 28.397 10 21.5 10ZM21.5 11.087C27.8095 11.087 32.913 16.1905 32.913 22.5C32.913 28.8095 27.8095 33.913 21.5 33.913C19.4772 33.913 17.5827 33.3857 15.9357 32.4641C15.8153 32.3968 15.6737 32.3778 15.5398 32.411L10.3184 33.705L11.7185 28.7097C11.7385 28.6391 11.744 28.5652 11.7347 28.4924C11.7254 28.4196 11.7015 28.3494 11.6643 28.2861C10.6634 26.5889 10.087 24.6142 10.087 22.5C10.087 16.1905 15.1905 11.087 21.5 11.087ZM16.9579 15.9783C16.6095 15.9783 16.112 16.1079 15.7033 16.5483C15.4578 16.8128 14.4348 17.8095 14.4348 19.5618C14.4348 21.3887 15.7018 22.9651 15.855 23.1677H15.8561V23.1687C15.8416 23.1496 16.0506 23.4523 16.3295 23.8152C16.6085 24.1781 16.9986 24.6547 17.4887 25.1707C18.4688 26.2027 19.8469 27.3953 21.5573 28.1248C22.345 28.4602 22.9664 28.6627 23.4372 28.8105C24.3097 29.0845 25.1044 29.0428 25.7013 28.9549C26.1482 28.8891 26.6396 28.6745 27.1258 28.3668C27.6121 28.0591 28.0886 27.6765 28.2988 27.0952C28.4493 26.6784 28.5259 26.2933 28.5535 25.9763C28.5674 25.8179 28.5691 25.678 28.5588 25.5486C28.5485 25.4191 28.5596 25.3199 28.4389 25.1219C28.1859 24.7064 27.8993 24.6956 27.6003 24.5476C27.4342 24.4654 26.9612 24.2344 26.4868 24.0084C26.013 23.7826 25.6027 23.5826 25.35 23.4925C25.1903 23.435 24.9954 23.3524 24.7142 23.3842C24.4329 23.4161 24.1551 23.619 23.9934 23.8587C23.8401 24.0859 23.223 24.8143 23.0349 25.0284C23.0324 25.0269 23.0487 25.0344 22.9744 24.9977C22.7417 24.8825 22.4572 24.7846 22.036 24.5625C21.6149 24.3403 21.0882 24.0123 20.5118 23.5042V23.5031C19.6538 22.7478 19.0529 21.7995 18.8633 21.481C18.8761 21.4658 18.8618 21.4842 18.8888 21.4576L18.8898 21.4566C19.0836 21.2657 19.2553 21.0378 19.4004 20.8706C19.6061 20.6336 19.6969 20.4247 19.7953 20.2295C19.9913 19.8405 19.8821 19.4124 19.7687 19.1871V19.1861C19.7766 19.2016 19.7074 19.049 19.6329 18.8729C19.5581 18.6963 19.4629 18.4674 19.3611 18.2233C19.1576 17.7351 18.9304 17.1875 18.7953 16.8667V16.8657C18.6362 16.4879 18.4209 16.2157 18.1394 16.0844C17.8578 15.9531 17.6091 15.9904 17.5991 15.9899H17.598C17.3971 15.9807 17.1767 15.9783 16.9579 15.9783ZM16.9579 17.0652C17.1675 17.0652 17.374 17.0678 17.547 17.0758C17.725 17.0847 17.714 17.0854 17.6797 17.0695C17.645 17.0532 17.6921 17.048 17.7933 17.2881C17.9256 17.6022 18.1539 18.1518 18.358 18.6415C18.4601 18.8864 18.5556 19.1162 18.6319 19.2965C18.7082 19.4767 18.7495 19.5773 18.7975 19.6733V19.6743L18.7985 19.6754C18.8456 19.7682 18.8414 19.7088 18.8251 19.7412C18.7104 19.9688 18.6948 20.0247 18.5788 20.1584C18.4022 20.3619 18.222 20.5888 18.1266 20.6827C18.0432 20.7647 17.8926 20.8924 17.7986 21.1424C17.7045 21.3927 17.7484 21.7362 17.8995 21.9926C18.1006 22.334 18.7633 23.4127 19.7931 24.3194C20.4417 24.8911 21.046 25.2695 21.5287 25.5242C22.0114 25.7788 22.4045 25.9275 22.4925 25.971C22.7014 26.0744 22.9297 26.1547 23.1952 26.1228C23.4607 26.091 23.6896 25.9299 23.8353 25.7651L23.8363 25.7641C24.0302 25.5442 24.6064 24.8863 24.8829 24.4807C24.8947 24.4849 24.8908 24.4816 24.9827 24.5147V24.5158H24.9838C25.0257 24.5307 25.5512 24.7659 26.0198 24.9892C26.4883 25.2124 26.9639 25.4445 27.1184 25.521C27.3414 25.6313 27.4468 25.7032 27.474 25.7035C27.4759 25.7514 27.4777 25.8032 27.4708 25.8819C27.4518 26.1002 27.3934 26.4023 27.2766 26.7258C27.2193 26.8841 26.9212 27.2107 26.5452 27.4486C26.1692 27.6866 25.7116 27.8546 25.5421 27.8796C25.0326 27.9547 24.4275 27.9821 23.7631 27.7734C23.3024 27.6288 22.7279 27.4416 21.984 27.1249C20.4754 26.4815 19.1933 25.3867 18.2773 24.4223C17.8194 23.9402 17.4525 23.4913 17.1914 23.1517C16.9309 22.8128 16.8171 22.6364 16.7223 22.5117L16.7212 22.5106C16.5528 22.2879 15.5217 20.8537 15.5217 19.5618C15.5217 18.1946 16.1568 17.6584 16.5004 17.2881C16.6808 17.0937 16.8781 17.0652 16.9579 17.0652Z" fill="#1D976C"/>
</svg>
